<svg width="32" height="32" viewBox="0 0 32 32" fill="none" xmlns="http://www.w3.org/2000/svg">
<path d="M8 17.8L11.5556 20.05L14.2222 16.9L16.8889 20.5L18.6667 18.25L21.3333 18.7L18.6667 16L16.8889 18.25L14.2222 13.75L11.1111 17.125L8 14.2V7.8928C8 7.4095 8.39733 7 8.88711 7H17.7778V12.4C17.7778 12.6387 17.8714 12.8676 18.0381 13.0364C18.2048 13.2052 18.4309 13.3 18.6667 13.3H24V24.0937C24.0008 24.2119 23.9786 24.3291 23.9347 24.4386C23.8908 24.5481 23.826 24.6478 23.744 24.7319C23.6621 24.8161 23.5645 24.8831 23.457 24.9291C23.3495 24.9751 23.234 24.9992 23.1173 25H8.88267C8.64872 25 8.42435 24.906 8.25884 24.7386C8.09333 24.5712 8.00024 24.3441 8 24.1072V17.8ZM24 11.5H19.5555V7.0027L24 11.5Z" fill="#8C8C8C"/>
<rect x="0.5" y="0.5" width="31" height="31" rx="3.5" stroke="#E2E2E2"/>
</svg>
