<svg width="156" height="125" viewBox="0 0 156 125" fill="none" xmlns="http://www.w3.org/2000/svg">
<rect x="0.5" y="0.5" width="155" height="124" rx="3.5" fill="#FBFBFB" stroke="#8C8C8C"/>
<path d="M38.1198 94.028C38.1198 95.42 37.6458 96.524 36.6978 97.34C35.8458 98.06 34.7598 98.42 33.4398 98.42C31.8798 98.42 30.6798 97.886 29.8398 96.818C29.1798 95.99 28.8498 95 28.8498 93.848C28.8498 92.804 29.1138 91.922 29.6418 91.202L30.8298 90.932C30.2418 91.796 29.9478 92.744 29.9478 93.776C29.9478 94.832 30.2898 95.696 30.9738 96.368C31.6218 97.004 32.4438 97.322 33.4398 97.322C34.5918 97.322 35.4858 96.974 36.1218 96.278C36.6618 95.702 36.9318 94.952 36.9318 94.028V84.02L38.1198 83.39V94.028ZM44.3983 95C43.3783 95 42.5923 94.67 42.0403 94.01C41.5843 93.446 41.3563 92.732 41.3563 91.868V84.02L42.5623 83.39V91.832C42.5623 93.2 43.2223 93.884 44.5423 93.884H45.1723V95H44.3983ZM50.6082 93.884H51.2382V95H50.4642C49.3842 95 48.5742 94.634 48.0342 93.902C47.4702 94.634 46.6542 95 45.5862 95H44.8122V93.884H45.4422C46.7622 93.884 47.4222 93.2 47.4222 91.832V87.926L48.6282 87.296V91.832C48.6282 93.2 49.2882 93.884 50.6082 93.884ZM46.5222 96.89C47.0022 96.89 47.2422 97.136 47.2422 97.628C47.2422 98.12 47.0022 98.366 46.5222 98.366C46.0422 98.366 45.8022 98.12 45.8022 97.628C45.8022 97.136 46.0422 96.89 46.5222 96.89ZM48.5742 96.89C49.0542 96.89 49.2942 97.136 49.2942 97.628C49.2942 98.12 49.0542 98.366 48.5742 98.366C48.0942 98.366 47.8542 98.12 47.8542 97.628C47.8542 97.136 48.0942 96.89 48.5742 96.89ZM52.6946 84.974C52.2146 84.974 51.9746 84.728 51.9746 84.236C51.9746 83.744 52.2146 83.498 52.6946 83.498C53.1746 83.498 53.4146 83.744 53.4146 84.236C53.4146 84.728 53.1746 84.974 52.6946 84.974ZM54.7466 84.974C54.2666 84.974 54.0266 84.728 54.0266 84.236C54.0266 83.744 54.2666 83.498 54.7466 83.498C55.2266 83.498 55.4666 83.744 55.4666 84.236C55.4666 84.728 55.2266 84.974 54.7466 84.974ZM56.6726 93.884H57.3026V95H56.5286C55.4486 95 54.6386 94.634 54.0986 93.902C53.5346 94.634 52.7186 95 51.6506 95H50.8766V93.884H51.5066C52.8266 93.884 53.4866 93.2 53.4866 91.832V87.926L54.6926 87.296V91.832C54.6926 93.2 55.3526 93.884 56.6726 93.884ZM56.9411 95V93.884H58.9571C61.5731 93.884 63.6131 92.996 65.0771 91.22C64.0091 89.18 62.7191 88.16 61.2071 88.16C60.1751 88.16 59.1671 88.682 58.1831 89.726V88.538C59.1671 87.566 60.1931 87.08 61.2611 87.08H61.2971C63.1811 87.08 64.8131 88.352 66.1931 90.896V91.634C64.4411 93.878 62.0231 95 58.9391 95H56.9411ZM68.7079 95V84.02L69.9139 83.39V95H68.7079ZM81.6014 86.756C81.1094 86.756 80.8634 86.504 80.8634 86C80.8634 85.52 81.1094 85.28 81.6014 85.28C82.0694 85.28 82.3034 85.52 82.3034 86C82.3034 86.504 82.0694 86.756 81.6014 86.756ZM88.2614 93.884H88.8914V95H88.1174C87.3734 95 86.7554 94.826 86.2634 94.478C86.1794 95.738 85.6754 96.728 84.7514 97.448C83.9354 98.096 82.9034 98.42 81.6554 98.42C80.1314 98.42 78.9494 97.88 78.1094 96.8C77.4494 95.972 77.1194 94.982 77.1194 93.83C77.1194 92.798 77.3834 91.91 77.9114 91.166L79.0814 90.932C78.5054 91.808 78.2174 92.744 78.2174 93.74C78.2174 94.796 78.5594 95.666 79.2434 96.35C79.8794 96.986 80.6834 97.304 81.6554 97.304C82.7954 97.304 83.6774 96.968 84.3014 96.296C84.8174 95.744 85.0754 95.018 85.0754 94.118V87.926L86.2814 87.296V91.832C86.2814 93.2 86.9414 93.884 88.2614 93.884ZM97.745 93.884V95H88.529V93.884H91.553C90.797 93.116 90.419 92.096 90.419 90.824C90.419 89.612 90.833 88.652 91.661 87.944C92.321 87.38 93.095 87.092 93.983 87.08C95.219 87.08 96.185 87.566 96.881 88.538V89.726C96.161 88.694 95.237 88.178 94.109 88.178H94.055C93.335 88.178 92.747 88.424 92.291 88.916C91.847 89.408 91.625 90.056 91.625 90.86C91.625 91.784 91.901 92.522 92.453 93.074C92.981 93.614 93.689 93.884 94.577 93.884H97.745ZM108.347 84.92C107.855 84.92 107.609 84.668 107.609 84.164C107.609 83.684 107.855 83.444 108.347 83.444C108.815 83.444 109.049 83.684 109.049 84.164C109.049 84.668 108.815 84.92 108.347 84.92ZM112.019 100.814C111.035 101.438 109.925 101.75 108.689 101.75C107.249 101.75 106.109 101.3 105.269 100.4C104.573 99.656 104.225 98.774 104.225 97.754C104.225 97.01 104.417 96.338 104.801 95.738C105.185 95.138 105.707 94.688 106.367 94.388C105.143 93.692 104.531 92.504 104.531 90.824C104.531 89.612 104.945 88.652 105.773 87.944C106.421 87.38 107.195 87.092 108.095 87.08C109.319 87.08 110.285 87.566 110.993 88.538V89.726C110.261 88.694 109.331 88.178 108.203 88.178C107.459 88.178 106.859 88.43 106.403 88.934C105.947 89.426 105.719 90.068 105.719 90.86C105.719 91.784 105.995 92.522 106.547 93.074C107.075 93.614 107.783 93.884 108.671 93.884H111.857V95H108.707C107.543 95 106.661 95.318 106.061 95.954C105.605 96.434 105.377 97.028 105.377 97.736C105.377 98.6 105.695 99.308 106.331 99.86C106.931 100.376 107.717 100.634 108.689 100.634H108.725C110.093 100.634 111.191 100.328 112.019 99.716V100.814ZM124.29 93.884H124.92V95H124.146C123.042 95 122.22 94.622 121.68 93.866C121.116 94.622 120.282 95 119.178 95H113.274L113.85 93.884H116.604V86.36L117.792 85.73V93.884H119.052C120.42 93.884 121.104 93.176 121.104 91.76V84.02L122.292 83.39V87.314L122.31 87.296V91.832C122.31 93.2 122.97 93.884 124.29 93.884ZM124.564 95V93.884H125.194C126.514 93.884 127.174 93.2 127.174 91.832V87.926L128.38 87.296V91.868C128.38 92.876 128.086 93.662 127.498 94.226C126.958 94.742 126.238 95 125.338 95H124.564ZM126.958 98.366C126.466 98.366 126.22 98.114 126.22 97.61C126.22 97.13 126.466 96.89 126.958 96.89C127.426 96.89 127.66 97.13 127.66 97.61C127.66 98.114 127.426 98.366 126.958 98.366Z" fill="black" fill-opacity="0.87"/>
<path d="M72.075 56C71.8083 56 71.5543 55.95 71.313 55.85C71.0717 55.75 70.859 55.6083 70.675 55.425L66.575 51.325C66.3917 51.1417 66.25 50.929 66.15 50.687C66.05 50.445 66 50.191 66 49.925V44.075C66 43.8083 66.05 43.5543 66.15 43.313C66.25 43.0717 66.3917 42.859 66.575 42.675L70.675 38.575C70.8583 38.3917 71.071 38.25 71.313 38.15C71.555 38.05 71.809 38 72.075 38H77.925C78.1917 38 78.446 38.05 78.688 38.15C78.93 38.25 79.1423 38.3917 79.325 38.575L83.425 42.675C83.6083 42.8583 83.75 43.071 83.85 43.313C83.95 43.555 84 43.809 84 44.075V49.925C84 50.1917 83.95 50.446 83.85 50.688C83.75 50.93 83.6083 51.1423 83.425 51.325L79.325 55.425C79.1417 55.6083 78.929 55.75 78.687 55.85C78.445 55.95 78.191 56 77.925 56H72.075ZM75 52C75.2833 52 75.521 51.904 75.713 51.712C75.905 51.52 76.0007 51.2827 76 51C76 50.7167 75.904 50.479 75.712 50.287C75.52 50.095 75.2827 49.9993 75 50C74.7167 50 74.479 50.096 74.287 50.288C74.095 50.48 73.9993 50.7173 74 51C74 51.2833 74.096 51.521 74.288 51.713C74.48 51.905 74.7173 52.0007 75 52ZM75 48C75.2833 48 75.521 47.904 75.713 47.712C75.905 47.52 76.0007 47.2827 76 47V43C76 42.7167 75.904 42.479 75.712 42.287C75.52 42.095 75.2827 41.9993 75 42C74.7167 42 74.479 42.096 74.287 42.288C74.095 42.48 73.9993 42.7173 74 43V47C74 47.2833 74.096 47.521 74.288 47.713C74.48 47.905 74.7173 48.0007 75 48Z" fill="#8C8C8C"/>
<rect x="59.5" y="31.5" width="31" height="31" rx="3.5" stroke="#8C8C8C"/>
</svg>
