<svg width="22" height="18" viewBox="0 0 22 18" fill="none" xmlns="http://www.w3.org/2000/svg">
<path d="M21.9203 10.1374C21.7553 7.86431 21.4835 7.42162 21.3808 7.25512C21.1447 6.87037 20.767 6.61894 20.3673 6.35512C20.3447 6.34046 20.3252 6.31955 20.3103 6.29404C20.2954 6.26853 20.2855 6.23913 20.2815 6.20814C20.2774 6.17716 20.2793 6.14545 20.287 6.11551C20.2946 6.08557 20.3078 6.05822 20.3256 6.03562C20.3996 5.9435 20.4565 5.83281 20.4923 5.71114C20.5282 5.58947 20.5421 5.45972 20.5332 5.33081C20.516 5.10222 20.4294 4.88992 20.2905 4.73603C20.1517 4.58214 19.9708 4.49789 19.7837 4.5H19.0686C19.038 4.50022 19.0074 4.50267 18.9769 4.50731C18.9561 4.4962 18.9344 4.48735 18.9123 4.48088C18.4888 3.38231 17.9089 1.87819 16.7069 1.14412C14.9242 0.0562498 11.6402 0 10.9985 0C10.3567 0 7.07274 0.0562499 5.29231 1.14244C4.09038 1.8765 3.5105 3.38063 3.08694 4.47919L3.08327 4.48819C3.06215 4.49183 3.0414 4.49825 3.02139 4.50731C2.99097 4.50267 2.96036 4.50022 2.92971 4.5H2.21323C2.02615 4.49789 1.84526 4.58214 1.70644 4.73603C1.56761 4.88992 1.48098 5.10222 1.46374 5.33081C1.4556 5.45942 1.47019 5.58868 1.5065 5.70974C1.54281 5.8308 1.6 5.94081 1.67415 6.03225C1.69189 6.05485 1.70511 6.0822 1.71276 6.11214C1.72041 6.14207 1.72229 6.17379 1.71824 6.20477C1.7142 6.23575 1.70434 6.26516 1.68945 6.29066C1.67456 6.31617 1.65504 6.33708 1.63244 6.35175C1.23271 6.61725 0.853155 6.86869 0.618912 7.25175C0.51623 7.4205 0.244857 7.86094 0.0793742 10.134C-0.0123059 11.4131 -0.026058 12.7373 0.045911 13.59C0.196725 15.3619 0.479558 16.4329 0.491477 16.4773C0.534877 16.639 0.614768 16.7823 0.721873 16.8905C0.828978 16.9988 0.958904 17.0675 1.09657 17.0887V17.1C1.09657 17.3387 1.17384 17.5676 1.31139 17.7364C1.44893 17.9052 1.63549 18 1.83001 18H4.39705C4.59157 18 4.77813 17.9052 4.91567 17.7364C5.05322 17.5676 5.13049 17.3387 5.13049 17.1C5.52518 17.1 5.79976 17.0134 6.09084 16.9211C6.5111 16.7822 6.94066 16.6897 7.37436 16.6449C8.77295 16.4812 10.1637 16.425 10.9985 16.425C11.8163 16.425 13.2685 16.4812 14.6694 16.6449C15.1048 16.6898 15.536 16.7826 15.9579 16.9222C16.2366 17.01 16.5011 17.091 16.8674 17.0994C16.8674 17.3381 16.9447 17.5671 17.0822 17.7358C17.2198 17.9046 17.4063 17.9994 17.6008 17.9994H20.1679C20.3624 17.9994 20.5489 17.9046 20.6865 17.7358C20.824 17.5671 20.9013 17.3381 20.9013 17.0994V17.0927C21.0393 17.0718 21.1696 17.0033 21.2771 16.895C21.3845 16.7868 21.4647 16.6433 21.5082 16.4812C21.5202 16.4368 21.803 15.3658 21.9538 13.5939C22.0258 12.7406 22.0129 11.4187 21.9203 10.1374ZM4.41264 5.24869C4.77936 4.29244 5.19879 3.21019 5.94553 2.754C7.0246 2.09475 9.26114 1.79775 10.9985 1.79775C12.7358 1.79775 14.9724 2.0925 16.0514 2.754C16.7982 3.21019 17.2158 4.293 17.5843 5.24869L17.6302 5.37075C17.657 5.44024 17.6688 5.517 17.6646 5.5937C17.6603 5.67041 17.6402 5.7445 17.606 5.80892C17.5718 5.87333 17.5247 5.92593 17.4692 5.96167C17.4138 5.99742 17.3517 6.01513 17.2891 6.01312C15.7658 5.9625 12.557 5.8005 10.9985 5.8005C9.43992 5.8005 6.23111 5.96644 4.70555 6.01706C4.64292 6.01907 4.58092 6.00136 4.52545 5.96561C4.46998 5.92986 4.4229 5.87727 4.3887 5.81286C4.3545 5.74844 4.33432 5.67434 4.33008 5.59764C4.32585 5.52093 4.3377 5.44418 4.3645 5.37469C4.38055 5.33306 4.39751 5.29087 4.41264 5.24869ZM4.95951 9.72787C4.17097 9.84433 3.37739 9.90181 2.58316 9.9C2.09725 9.9 1.59622 9.73125 1.50317 9.20025C1.43945 8.84306 1.44633 8.64225 1.48071 8.44031C1.50958 8.26875 1.55542 8.14388 1.78463 8.1C2.38055 7.9875 2.7138 8.12869 3.68928 8.48137C4.33608 8.71481 4.80274 9.02587 5.06861 9.27225C5.202 9.39375 5.13095 9.711 4.95951 9.72787ZM15.1076 14.3404C14.5043 14.4247 13.2978 14.3938 11.0122 14.3938C8.72665 14.3938 7.52059 14.4247 6.91734 14.3404C6.29483 14.2554 5.50134 13.5332 6.04317 12.8897C6.40393 12.4656 7.24555 12.1483 8.36634 11.97C9.48713 11.7917 9.96158 11.7 11.0076 11.7C12.0537 11.7 12.48 11.7562 13.649 11.9706C14.8179 12.1849 15.7012 12.5061 15.9721 12.8903C16.4663 13.5787 15.7296 14.2509 15.1076 14.3438V14.3404ZM20.4938 9.19969C20.4021 9.73294 19.8979 9.89944 19.4138 9.89944C18.6044 9.89967 17.7956 9.8422 16.9916 9.72731C16.8513 9.711 16.7862 9.40894 16.9284 9.27169C17.1901 9.01912 17.6618 8.71425 18.3077 8.48081C19.2832 8.12813 19.8456 7.98694 20.3288 8.1045C20.4466 8.13319 20.5089 8.28844 20.5163 8.38575C20.5486 8.65671 20.541 8.93259 20.4938 9.20025V9.19969Z" fill="#8C8C8C"/>
</svg>
