<svg width="18" height="18" viewBox="0 0 18 18" fill="none" xmlns="http://www.w3.org/2000/svg">
<path d="M0.569256 14.3262C0.631748 14.5976 0.764517 14.8479 0.954248 15.0518C1.14398 15.2557 1.384 15.4062 1.65024 15.4881L1.81225 16.2H1.79875V18H16.1999V16.2H4.21364C4.22545 16.1168 4.22332 16.0323 4.20734 15.9498L4.03092 15.1731L13.3529 13.0527L13.5294 13.8294C13.5764 14.0355 13.7032 14.2144 13.8821 14.327C14.061 14.4396 14.2773 14.4765 14.4834 14.4297L15.2602 14.2524C15.3623 14.2292 15.4588 14.1862 15.5443 14.1257C15.6297 14.0652 15.7024 13.9884 15.7581 13.8998C15.8139 13.8112 15.8516 13.7125 15.8692 13.6093C15.8868 13.5061 15.8838 13.4005 15.8605 13.2984L15.6346 12.3057C16.036 11.9313 16.2377 11.3643 16.1072 10.791L15.5761 8.46C15.5117 8.17917 15.3719 7.92123 15.1717 7.71396C14.9715 7.50669 14.7186 7.35793 14.4402 7.2837L12.596 4.2435C12.324 3.79682 11.9187 3.44681 11.4371 3.24286C10.9555 3.03891 10.4221 2.99132 9.91198 3.1068L2.83023 4.7178C2.31961 4.83346 1.85838 5.10698 1.51199 5.49954C1.1656 5.89211 0.951643 6.38378 0.900482 6.9048L0.552155 10.4436C0.33368 10.6312 0.17047 10.8748 0.0800751 11.1481C-0.0103198 11.4215 -0.0244806 11.7144 0.0391153 11.9952L0.569256 14.3262ZM3.28747 13.707C3.13446 13.7419 2.97608 13.7463 2.82137 13.7199C2.66667 13.6936 2.51867 13.637 2.38582 13.5535C2.25297 13.47 2.13787 13.3611 2.04711 13.2331C1.95634 13.1051 1.89167 12.9604 1.85681 12.8074C1.82194 12.6545 1.81755 12.4961 1.84389 12.3414C1.87023 12.1867 1.92678 12.0387 2.01032 11.9059C2.09385 11.773 2.20274 11.6579 2.33076 11.5672C2.45877 11.4764 2.60342 11.4118 2.75642 11.3769C3.06544 11.3065 3.38977 11.3617 3.65807 11.5304C3.92637 11.6991 4.11666 11.9675 4.18708 12.2764C4.25751 12.5854 4.20229 12.9097 4.03357 13.178C3.86486 13.4463 3.59648 13.6366 3.28747 13.707ZM13.388 11.4102C13.2324 11.453 13.0697 11.4638 12.9098 11.442C12.7499 11.4202 12.5961 11.3663 12.4576 11.2834C12.3191 11.2005 12.1988 11.0905 12.1039 10.9599C12.0091 10.8293 11.9417 10.6808 11.9059 10.5235C11.87 10.3662 11.8663 10.2032 11.8951 10.0444C11.9239 9.88559 11.9846 9.73428 12.0735 9.59957C12.1624 9.46486 12.2776 9.34954 12.4123 9.26057C12.5469 9.1716 12.6982 9.11082 12.857 9.0819C13.1599 9.02672 13.4724 9.09055 13.7295 9.2601C13.9865 9.42964 14.1681 9.69182 14.2366 9.99199C14.3051 10.2922 14.255 10.6072 14.097 10.8714C13.9389 11.1356 13.6849 11.3286 13.388 11.4102ZM3.22896 6.4728L10.3116 4.8609C10.4535 4.82884 10.6019 4.84207 10.7359 4.89873C10.8699 4.9554 10.9828 5.05265 11.0587 5.1768L12.4853 7.5285L11.9758 7.6446L2.93374 9.7029L2.4225 9.819L2.69162 7.0812C2.70611 6.93627 2.76578 6.79956 2.8622 6.69038C2.95863 6.58121 3.08692 6.5051 3.22896 6.4728ZM14.7643 1.8L13.4997 0L13.0496 2.7L15.2998 6.3L18 7.2L16.1999 4.9149L18 4.0752L16.1999 3.2355L18 0L14.7643 1.8Z" fill="#8C8C8C"/>
</svg>
