<svg width="20" height="20" viewBox="0 0 20 20" fill="none" xmlns="http://www.w3.org/2000/svg">
<path d="M17.9598 12.9488C17.9698 12.7988 17.9998 12.6488 17.9998 12.4988V12.9988L17.9598 12.9488ZM7.99982 12.4988C7.99982 13.2088 8.14982 13.8888 8.41982 14.4988H2.99982V15.4988C2.99982 16.0488 2.54982 16.4988 1.99982 16.4988H0.999817C0.449817 16.4988 -0.000183105 16.0488 -0.000183105 15.4988V7.49878L2.07982 1.49878C2.27982 0.918779 2.83982 0.498779 3.49982 0.498779H14.4998C15.1598 0.498779 15.7198 0.918779 15.9198 1.49878L17.9998 7.49878V12.4988C17.9998 9.73878 15.7598 7.49878 12.9998 7.49878C10.2398 7.49878 7.99982 9.73878 7.99982 12.4988ZM4.99982 9.99878C4.99982 9.16878 4.32982 8.49878 3.49982 8.49878C2.66982 8.49878 1.99982 9.16878 1.99982 9.99878C1.99982 10.8288 2.66982 11.4988 3.49982 11.4988C4.32982 11.4988 4.99982 10.8288 4.99982 9.99878ZM15.9998 6.49878L14.4998 1.99878H3.49982L1.99982 6.49878H15.9998ZM19.8698 17.6888L15.7598 13.5788C16.1698 12.5388 15.9398 11.3188 15.0798 10.4688C14.1798 9.55878 12.8298 9.37878 11.7398 9.87878L13.6798 11.8188L12.3298 13.1788L10.3398 11.2288C9.79982 12.3188 10.0498 13.6688 10.9298 14.5788C11.327 14.9839 11.8339 15.2641 12.3882 15.385C12.9425 15.5058 13.5201 15.4619 14.0498 15.2588L18.1598 19.3588C18.3398 19.5488 18.6098 19.5488 18.7898 19.3588L19.8298 18.3288C20.0498 18.1488 20.0498 17.8288 19.8698 17.6888Z" fill="#8C8C8C"/>
</svg>
